<svg id="Capa_1" data-name="Capa 1" xmlns="http://www.w3.org/2000/svg" viewBox="0 0 46 46"><defs><style>.cls-1{fill:#fff;}</style></defs><title>logo</title><circle class="cls-1" cx="23" cy="23" r="23"/><path d="M18.57,15.76V31.33a16,16,0,0,1-.41,4.34,3.52,3.52,0,0,1-1.54,2,5.45,5.45,0,0,1-2.91.71,8.47,8.47,0,0,1-1.37-.12,12.35,12.35,0,0,1-1.59-.34l.75-3.63.56.1a4.57,4.57,0,0,0,.5,0,1.89,1.89,0,0,0,1.06-.28,1.4,1.4,0,0,0,.56-.68,11.27,11.27,0,0,0,.13-2.36V15.76Zm-4.26-2.18V9.64h4.26v3.94Z" transform="translate(-1 -1)"/><path d="M37,20.51l-4.19.76a3,3,0,0,0-1-1.89,2.88,2.88,0,0,0-1.95-.64,3.17,3.17,0,0,0-2.53,1.1,5.61,5.61,0,0,0-.95,3.67,6.51,6.51,0,0,0,1,4A3.14,3.14,0,0,0,30,28.73,2.89,2.89,0,0,0,32,28a4.17,4.17,0,0,0,1.09-2.37l4.18.71a7.46,7.46,0,0,1-2.5,4.35A7.72,7.72,0,0,1,29.8,32.2,7.36,7.36,0,0,1,24.17,30a8.66,8.66,0,0,1-2.09-6.16,8.67,8.67,0,0,1,2.1-6.2,7.46,7.46,0,0,1,5.69-2.22,7.77,7.77,0,0,1,4.67,1.27A7,7,0,0,1,37,20.51Z" transform="translate(-1 -1)"/></svg>